<svg xmlns="http://www.w3.org/2000/svg" xmlns:xlink="http://www.w3.org/1999/xlink" version="1.1" x="0px" y="0px" viewBox="0 0 99 123.75" style="enable-background:new 0 0 99 99;" xml:space="preserve"><style type="text/css">
	.st0{fill:none;}
</style><path d="M71.15,20.15C66.22,12.49,57.87,7.46,48.39,7.46c-9.47,0-17.82,5.03-22.76,12.69c-3.97,6.16-5.36,13.63-4.06,20.85  c0.29,1.64,0.72,3.65,1.35,5.97c2.79,10.32,18.68,30.56,25.47,51.74c7.25-21.78,22.68-41.42,25.47-51.74  c0.63-2.32,1.06-4.33,1.36-5.97C76.51,33.78,75.12,26.31,71.15,20.15z M66.09,21.8l-0.67,1.97c-1.08,3.12-2.92,5.92-5.37,8.13  l-1.41,1.28l3.23,18.3c-1.32,0.47-0.99,0.36-2.3,0.82l-7.42-13.24l-8.46,7.67l0.67,8.9c-1.04,0.34-0.88,0.29-1.92,0.62l-4.79-7.85  c0,0,0,0,0-0.01c-0.01,0-0.01,0-0.01,0l-7.85-4.79c0.33-1.04,0.28-0.88,0.62-1.92l8.9,0.67l7.67-8.46l-13.24-7.42  c0.46-1.31,0.35-0.98,0.82-2.3l18.3,3.23l1.28-1.41c2.22-2.44,5.01-4.29,8.14-5.37l1.96-0.67C65.39,19.55,66.49,20.65,66.09,21.8z"/><text x="0" y="114" fill="#000000" font-size="5px" font-weight="bold" font-family="'Helvetica Neue', Helvetica, Arial-Unicode, Arial, Sans-serif">Created by izzul fikry</text><text x="0" y="119" fill="#000000" font-size="5px" font-weight="bold" font-family="'Helvetica Neue', Helvetica, Arial-Unicode, Arial, Sans-serif">from the Noun Project</text></svg>